HIERARCHY
ROOT Hips
{
	OFFSET -0.001795 -0.223333 0.028219
	CHANNELS 6 Xposition Yposition Zposition Zrotation Yrotation Xrotation 
	JOINT LeftUpLeg
	{
		OFFSET 0.069520 -0.091406 -0.006815
		CHANNELS 3 Zrotation Yrotation Xrotation
		JOINT LeftLeg
		{
			OFFSET 0.034277 -0.375199 -0.004496
			CHANNELS 3 Zrotation Yrotation Xrotation
			JOINT LeftFoot
			{
				OFFSET -0.013596 -0.397961 -0.043693
				CHANNELS 3 Zrotation Yrotation Xrotation
				JOINT LeftToe
				{
					OFFSET 0.026358 -0.055791 0.119288
					CHANNELS 3 Zrotation Yrotation Xrotation
					End Site
					{
						OFFSET 0.000000 0.000000 0.000000
					}
				}
			}
		}
	}
	JOINT RightUpLeg
	{
		OFFSET -0.067670 -0.090522 -0.004320
		CHANNELS 3 Zrotation Yrotation Xrotation
		JOINT RightLeg
		{
			OFFSET -0.038290 -0.382569 -0.008850
			CHANNELS 3 Zrotation Yrotation Xrotation
			JOINT RightFoot
			{
				OFFSET 0.015774 -0.398415 -0.042312
				CHANNELS 3 Zrotation Yrotation Xrotation
				JOINT RightToe
				{
					OFFSET -0.025372 -0.048144 0.123348
					CHANNELS 3 Zrotation Yrotation Xrotation
					End Site
					{
						OFFSET 0.000000 0.000000 0.000000
					}
				}
			}
		}
	}
	JOINT Spine
	{
		OFFSET -0.002533 0.108963 -0.026696
		CHANNELS 3 Zrotation Yrotation Xrotation
		JOINT Spine1
		{
			OFFSET 0.005487 0.135180 0.001092
			CHANNELS 3 Zrotation Yrotation Xrotation
			JOINT Spine2
			{
				OFFSET 0.001457 0.052922 0.025425
				CHANNELS 3 Zrotation Yrotation Xrotation
				JOINT Neck
				{
					OFFSET -0.002778 0.213870 -0.042857
					CHANNELS 3 Zrotation Yrotation Xrotation
					JOINT Head
					{
						OFFSET 0.005152 0.064970 0.051349
						CHANNELS 3 Zrotation Yrotation Xrotation
						End Site
						{
							OFFSET 0.000000 0.000000 0.000000
						}
					}
				}
				JOINT LeftShoulder
				{
					OFFSET 0.078845 0.121749 -0.034090
					CHANNELS 3 Zrotation Yrotation Xrotation
					JOINT LeftArm
					{
						OFFSET 0.090977 0.030469 -0.008868
						CHANNELS 3 Zrotation Yrotation Xrotation
						JOINT LeftForeArm
						{
							OFFSET 0.259612 -0.012772 -0.027456
							CHANNELS 3 Zrotation Yrotation Xrotation
							JOINT LeftHand
							{
								OFFSET 0.249234 0.008986 -0.001171
								CHANNELS 3 Zrotation Yrotation Xrotation
								End Site
								{
									OFFSET 0.000000 0.000000 0.000000
								}
							}
						}
					}
				}
				JOINT RightShoulder
				{
					OFFSET -0.081759 0.118833 -0.038615
					CHANNELS 3 Zrotation Yrotation Xrotation
					JOINT RightArm
					{
						OFFSET -0.096012 0.032551 -0.009143
						CHANNELS 3 Zrotation Yrotation Xrotation
						JOINT RightForeArm
						{
							OFFSET -0.253742 -0.013329 -0.021401
							CHANNELS 3 Zrotation Yrotation Xrotation
							JOINT RightHand
							{
								OFFSET -0.255298 0.007772 -0.005559
								CHANNELS 3 Zrotation Yrotation Xrotation
								End Site
								{
									OFFSET 0.000000 0.000000 0.000000
								}
							}
						}
					}
				}
			}
		}
	}
}
MOTION
Frames: 15
Frame Time: 0.050000
0.007942 0.937650 -0.074021 -2.151024 -4.711319 -1.970521 0.364547 0.470156 4.995489 3.291551 -0.417115 0.478190 -1.105624 -3.093655 -1.448590 0.000000 0.000000 0.000000 2.468631 -0.336981 2.379454 -3.685449 0.663188 3.887057 1.646601 4.861857 -0.901056 0.000000 0.000000 0.000000 4.512430 -0.471173 6.053124 -0.947455 0.458395 -1.036820 -3.976497 7.394896 0.456293 9.838172 -4.068198 -16.401489 0.000000 0.000000 0.000000 -16.176006 -2.242215 -1.841867 -50.776342 -8.812068 -1.799608 -17.003655 -26.014781 4.395592 0.000000 0.000000 0.000000 15.450770 -4.006569 -2.388000 57.039975 3.467983 -3.519115 13.609382 28.738591 4.641244 0.000000 0.000000 0.000000 
0.007642 0.937852 -0.073992 -2.181521 -4.570057 -1.608843 0.283578 0.459620 4.866883 3.399387 -0.386269 -0.202811 -1.128269 -2.970655 -1.094265 0.000000 0.000000 0.000000 2.586173 -0.322163 2.184528 -3.639096 0.637235 3.635436 1.502717 4.438325 -0.841957 0.000000 0.000000 0.000000 4.460166 -0.465543 5.922592 -0.892817 0.433581 -1.180958 -3.740712 7.221208 0.580951 9.703117 -3.959960 -16.614927 0.000000 0.000000 0.000000 -16.029048 -2.069793 -1.860052 -50.596082 -8.562918 -1.913783 -16.894239 -26.181189 4.416122 0.000000 0.000000 0.000000 15.046216 -4.176542 -2.476619 57.032969 3.041963 -3.704816 14.044452 28.937061 4.778305 0.000000 0.000000 0.000000 
0.007188 0.937862 -0.073958 -2.199088 -4.546225 -1.240377 0.289510 0.441726 4.691338 3.421155 -0.366058 -0.550846 -1.097784 -2.830363 -0.947300 0.000000 0.000000 0.000000 2.695519 -0.286411 1.816611 -3.617002 0.626622 3.544338 1.356476 3.989414 -0.751952 0.000000 0.000000 0.000000 4.389729 -0.453699 5.725158 -0.771907 0.377473 -1.332367 -3.648512 7.065774 0.773777 9.702951 -3.953689 -16.747182 0.000000 0.000000 0.000000 -16.064447 -1.916971 -1.895950 -50.409811 -8.698845 -1.865693 -16.567233 -25.692840 4.278895 0.000000 0.000000 0.000000 15.022597 -4.324901 -2.578493 56.751003 2.887587 -3.775677 14.283238 29.189719 4.878330 0.000000 0.000000 0.000000 
0.006458 0.937618 -0.073799 -2.206035 -4.482440 -0.826149 0.242826 0.408106 4.332266 3.377824 -0.347957 -0.746561 -0.935143 -2.445338 -0.897889 0.000000 0.000000 0.000000 2.781014 -0.253118 1.479877 -3.549255 0.604880 3.385162 1.265638 3.635409 -0.586970 0.000000 0.000000 0.000000 4.244629 -0.429765 5.407378 -0.670807 0.331187 -1.414237 -3.453665 6.820564 1.060877 9.481046 -3.822980 -16.893949 0.000000 0.000000 0.000000 -16.013715 -1.659579 -1.944469 -50.624542 -8.832063 -1.855498 -16.173366 -25.322320 4.156997 0.000000 0.000000 0.000000 14.967449 -4.274861 -2.592538 56.746057 2.832298 -3.820834 14.379668 29.339089 4.914917 0.000000 0.000000 0.000000 
0.005401 0.937431 -0.073524 -2.257101 -4.500335 -0.594639 0.315783 0.385624 4.130770 3.334095 -0.346605 -0.687478 -0.750811 -2.070847 -0.971255 0.000000 0.000000 0.000000 2.930919 -0.243156 1.331953 -3.520185 0.589703 3.241572 1.267387 3.526786 -0.424303 0.000000 0.000000 0.000000 4.136750 -0.414656 5.223264 -0.605217 0.300215 -1.378834 -3.355860 6.727674 1.101078 9.402150 -3.781377 -16.926940 0.000000 0.000000 0.000000 -16.028642 -1.573816 -1.960609 -50.791602 -8.711237 -1.919724 -15.935806 -24.714164 4.015318 0.000000 0.000000 0.000000 15.043366 -4.223280 -2.593300 56.934138 2.858061 -3.823746 14.031578 29.084364 4.768212 0.000000 0.000000 0.000000 
0.004122 0.937137 -0.073065 -2.331612 -4.478542 -0.271249 0.486116 0.348913 3.818820 3.093291 -0.330477 -0.507679 -0.561742 -1.641462 -0.949247 0.000000 0.000000 0.000000 3.144484 -0.223976 1.085810 -3.575630 0.589472 3.150143 1.340608 3.571309 -0.214064 0.000000 0.000000 0.000000 4.029216 -0.390242 4.887866 -0.552499 0.275425 -1.337056 -3.162792 6.567349 1.161785 9.344613 -3.676959 -17.388926 0.000000 0.000000 0.000000 -16.075755 -1.178727 -2.115825 -50.974732 -8.593938 -1.988465 -16.000464 -24.209637 3.959975 0.000000 0.000000 0.000000 15.016832 -4.312144 -2.670111 57.158038 2.969686 -3.781636 13.701254 28.422762 4.546950 0.000000 0.000000 0.000000 
0.002727 0.937051 -0.072554 -2.451684 -4.496853 0.003834 0.758675 0.295949 3.355156 2.824024 -0.321146 -0.145795 -0.322649 -1.185590 -1.114025 0.000000 0.000000 0.000000 3.355435 -0.217723 0.951505 -3.554347 0.571233 2.952854 1.411048 3.718582 -0.163391 0.000000 0.000000 0.000000 3.996318 -0.369479 4.564375 -0.576276 0.286551 -1.343418 -2.979951 6.557068 1.215691 9.451699 -3.686471 -17.704959 0.000000 0.000000 0.000000 -16.263975 -0.894549 -2.268888 -51.115619 -8.270997 -2.132925 -16.029206 -23.598587 3.870411 0.000000 0.000000 0.000000 15.304009 -4.282862 -2.688215 57.418974 3.088985 -3.751007 13.124027 27.850653 4.298778 0.000000 0.000000 0.000000 
0.001378 0.936907 -0.072066 -2.542839 -4.594248 0.245954 0.954209 0.261397 3.043565 2.615348 -0.305776 0.005323 -0.146163 -0.776292 -1.077295 0.000000 0.000000 0.000000 3.555660 -0.210325 0.813535 -3.498340 0.547919 2.748163 1.415934 3.532691 0.122041 0.000000 0.000000 0.000000 3.862480 -0.348010 4.302152 -0.543610 0.270615 -1.296527 -2.722111 6.489246 1.210473 9.396596 -3.612657 -18.008008 0.000000 0.000000 0.000000 -16.440538 -0.535313 -2.435185 -51.331226 -7.805124 -2.342998 -16.202531 -23.233288 3.855697 0.000000 0.000000 0.000000 15.368205 -4.173493 -2.670445 57.548515 3.249633 -3.680994 12.847866 27.106922 4.087458 0.000000 0.000000 0.000000 
-0.000003 0.937087 -0.071732 -2.600911 -4.620891 0.432387 1.086385 0.232030 2.761057 2.425657 -0.300880 0.325810 -0.013847 -0.500170 -1.117955 0.000000 0.000000 0.000000 3.691132 -0.197334 0.658165 -3.388806 0.529252 2.687457 1.481032 3.665622 0.171508 0.000000 0.000000 0.000000 3.911652 -0.327426 3.947507 -0.612239 0.300627 -1.050729 -2.611908 6.413332 1.108867 9.410520 -3.593991 -18.185797 0.000000 0.000000 0.000000 -16.691801 -0.536793 -2.457017 -51.644084 -7.503418 -2.476271 -15.718504 -22.404116 3.628000 0.000000 0.000000 0.000000 15.710119 -4.031425 -2.647784 57.543386 3.436439 -3.594582 12.549994 26.739926 3.946043 0.000000 0.000000 0.000000 
-0.001491 0.937182 -0.071559 -2.653418 -4.781355 0.509235 1.395542 0.214589 2.653687 2.102632 -0.271213 0.489869 0.111759 -0.263498 -1.222313 0.000000 0.000000 0.000000 3.816355 -0.203904 0.663846 -3.276708 0.511624 2.647131 1.555504 3.728209 0.353140 0.000000 0.000000 0.000000 3.892958 -0.321244 3.861057 -0.655751 0.321079 -1.152553 -2.486963 6.336941 1.212173 9.279119 -3.438385 -18.733429 0.000000 0.000000 0.000000 -16.945852 -0.155974 -2.641921 -51.706142 -7.215934 -2.614861 -15.718737 -21.777409 3.537533 0.000000 0.000000 0.000000 15.927402 -4.004258 -2.687075 57.317521 3.491764 -3.575031 12.983045 26.301142 3.954933 0.000000 0.000000 0.000000 
-0.003155 0.937591 -0.071612 -2.648797 -4.834408 0.566362 1.495307 0.201324 2.527807 1.986525 -0.269315 0.734069 0.154235 -0.153104 -1.186226 0.000000 0.000000 0.000000 3.983746 -0.229612 0.808847 -3.216781 0.485998 2.398554 1.636679 3.775260 0.581329 0.000000 0.000000 0.000000 3.862387 -0.316881 3.807779 -0.589129 0.289598 -1.123231 -2.537902 6.212372 1.076187 9.301183 -3.398582 -19.070847 0.000000 0.000000 0.000000 -17.226931 -0.204454 -2.638419 -51.585660 -6.882295 -2.733780 -15.300411 -21.224595 3.377492 0.000000 0.000000 0.000000 16.201650 -3.872423 -2.673122 57.208674 3.413648 -3.602286 13.053865 26.158643 3.932557 0.000000 0.000000 0.000000 
-0.004908 0.937759 -0.071825 -2.656310 -4.907887 0.656252 1.618869 0.183645 2.353839 1.848274 -0.263887 0.974697 0.259276 0.009204 -1.359709 0.000000 0.000000 0.000000 4.193779 -0.235118 0.782488 -3.192427 0.486181 2.448390 1.780992 4.202278 0.494509 0.000000 0.000000 0.000000 3.859614 -0.317467 3.801039 -0.626561 0.307171 -1.175731 -2.613823 6.227356 0.908702 9.482632 -3.405405 -19.565145 0.000000 0.000000 0.000000 -17.453666 -0.134037 -2.716142 -51.509471 -6.682984 -2.790893 -15.398844 -20.791987 3.323302 0.000000 0.000000 0.000000 16.584496 -3.961916 -2.757733 57.029919 3.362020 -3.611721 13.342040 25.755593 3.921905 0.000000 0.000000 0.000000 
-0.006490 0.937878 -0.072214 -2.576354 -4.925024 0.588358 1.628114 0.190561 2.434485 1.772876 -0.254162 0.966340 0.274497 0.050752 -1.341843 0.000000 0.000000 0.000000 4.291621 -0.241580 0.810500 -3.219953 0.503607 2.642645 1.744325 4.229648 0.323189 0.000000 0.000000 0.000000 3.783734 -0.318986 3.880782 -0.597220 0.293370 -1.171444 -2.769707 6.156269 0.733191 9.407974 -3.369369 -19.522163 0.000000 0.000000 0.000000 -17.392765 -0.090751 -2.723689 -51.260865 -6.666980 -2.768811 -15.497923 -20.871502 3.353735 0.000000 0.000000 0.000000 16.538109 -4.032490 -2.802540 57.136829 3.013674 -3.762527 13.623550 25.585953 3.947486 0.000000 0.000000 0.000000 
-0.007762 0.937905 -0.072706 -2.386498 -4.872028 0.461251 1.516726 0.198644 2.492440 1.773731 -0.254520 0.971076 0.249281 -0.001536 -1.330106 0.000000 0.000000 0.000000 4.228858 -0.242224 0.845770 -3.232583 0.516765 2.797507 1.697497 4.194189 0.204836 0.000000 0.000000 0.000000 3.839377 -0.329411 4.021995 -0.727915 0.355043 -1.223639 -3.137766 6.200958 0.588381 9.439579 -3.404368 -19.318373 0.000000 0.000000 0.000000 -17.539728 -0.349492 -2.658886 -50.892334 -6.784092 -2.668981 -15.608596 -21.082739 3.399368 0.000000 0.000000 0.000000 16.566363 -4.204572 -2.866332 57.328778 2.711845 -3.903207 14.094550 25.537922 4.049816 0.000000 0.000000 0.000000 
-0.008587 0.937623 -0.073238 -2.109447 -4.713740 0.281359 1.313788 0.222598 2.710360 1.791359 -0.247894 0.787862 0.105948 -0.284961 -1.239328 0.000000 0.000000 0.000000 4.087073 -0.228864 0.804699 -3.301074 0.564204 3.315265 1.639868 4.359354 -0.232410 0.000000 0.000000 0.000000 3.778110 -0.338894 4.226962 -0.885896 0.429440 -1.228817 -3.395990 6.054406 0.391105 9.249023 -3.337669 -19.060912 0.000000 0.000000 0.000000 -17.597519 -0.328800 -2.684667 -50.647904 -7.066155 -2.516881 -15.695101 -21.735257 3.519302 0.000000 0.000000 0.000000 16.440641 -4.327121 -2.923321 57.546800 2.309916 -4.085067 14.441738 25.430230 4.102768 0.000000 0.000000 0.000000 
